# xmcd CD database file
#
# Track frame offsets:
#	150
#	16478
#	45800
#	76383
#	91955
#	105485
#	138062
#	177421
#	187495
#	231464
#	243479
#	275964
#
# Disc length: 4375 seconds
#
# Revision: 0
# Processed by: cddbd v1.4PL0 Copyright (c) Steve Scherf et al.
# Submitted via: CDex 1.50beta10
#
DISCID=a311150c
DTITLE=World Quintet - The World Quintet
DYEAR=2002
DGENRE=Jazz
TTITLE0=Send In The World Quintet
TTITLE1=Flatbush Minyan Bulgar
TTITLE2=Vergebung
TTITLE3=Lied ohne Worte
TTITLE4=The Chase
TTITLE5=Intermezzo No. 3
TTITLE6=The Rod
TTITLE7=Intermezzo No. 1
TTITLE8=Wedding Suite
TTITLE9=Naphtule is having a bad day
TTITLE10=Trauer
TTITLE11=Datentrack
EXTD=YEAR: 2002
EXTT0=
EXTT1=
EXTT2=
EXTT3=
EXTT4=
EXTT5=
EXTT6=
EXTT7=
EXTT8=
EXTT9=
EXTT10=
EXTT11=
PLAYORDER=
